<svg aria-hidden="true" role="img" width="55" height="16" viewBox="0 0 55 16"><g fill="currentColor">
<path d="m5.1872 12.367v-1.4732h0.64633q1.1354 0 1.7002-0.64633 0.57063-0.65215 0.57063-1.8982 0-1.3742-0.57063-2.0787-0.56481-0.70455-1.7002-0.70455h-0.62303l-0.13975-1.4673h0.76278q3.8838 0 3.8838 4.2506 0 4.0177-3.8838 4.0177zm-1.4557 0v-8.2683h1.5372v8.2683zm10.312 0.11646q-1.6013 0-2.4747-0.82683-0.87341-0.83265-0.87341-2.3873 0-1.5139 0.73949-2.3524 0.74531-0.83848 2.0962-0.83848 1.3218 0 2.0438 0.77443 0.72202 0.77443 0.72202 2.2534 0 0.41924-0.03494 0.79772h-4.5301v-1.0947h3.0162q0-0.62303-0.32025-0.95493-0.31443-0.3319-0.88506-0.3319-0.61721 0-0.96075 0.44253-0.33772 0.43671-0.33772 1.2461 0 0.87341 0.50076 1.3276 0.50658 0.45417 1.4382 0.45417 0.41924 0 0.82683-0.04076 0.40759-0.04658 0.83265-0.12228l0.15139 1.4906q-0.59392 0.10481-1.083 0.13392-0.48911 0.02911-0.86759 0.02911zm5.1182-0.11646v-5.6481q0-3.2025 3.0919-3.2025 0.7162 0 1.38 0.11646l-0.15139 1.4615q-0.39012-0.046582-0.69291-0.06405-0.29696-0.017468-0.57063-0.017468-1.4848 0-1.4848 1.6478v5.7063zm-1.8749-3.5926v-1.3509h5.9043v1.3509zm7.0222 1.9273 1.019-6.1372h1.5663l-1.0306 6.1372zm0 0 0.91417-1.4033h3.1618v1.4033zm5.3744 0v-1.4033h0.91417v1.4033zm-1.4149 1.6653v-8.2683h1.5314v8.2683zm5.2929 0.11646q-0.87924 0-1.3625-0.57645-0.48329-0.58228-0.48329-1.6362v-4.0759h1.578v3.6858q0 0.52987 0.23873 0.82101 0.24456 0.28532 0.66962 0.28532 0.55316 0 0.83265-0.42506 0.28532-0.43088 0.28532-1.4382l0.31443 2.0554h-0.47747q-0.14557 0.62886-0.56481 0.96658-0.41924 0.33772-1.0306 0.33772zm1.8633-0.05823-0.10481-1.479v-1.083h1.578v1.0947l0.85012 0.1281v1.281zm-0.10481-1.8051v-4.4253h1.578v4.0759zm7.0455 1.8633q-1.1646 0-1.6828-0.6405-0.5124-0.6405-0.5124-2.0496v-6.1605h1.5721v6.1022q0 0.3843 0.08152 0.62886t0.31443 0.36101q0.23291 0.11646 0.69291 0.11646 0.5124 0 1.2927-0.22126l0.1805 1.6187q-0.49493 0.1281-0.95493 0.18633-0.46 0.05823-0.98404 0.05823zm-3.942-7.4007v-1.4499h1.8516v1.4499zm11.319 7.4007q-1.5954 0-2.3058-0.6405-0.71038-0.6405-0.71038-2.0496v-0.80354h1.5721v0.65215q0 0.70455 0.36101 1.0248 0.36683 0.32025 1.1995 0.32025 0.26785 0 0.57063-0.02911 0.30861-0.03494 0.69873-0.08734l0.13975 1.4732q-0.3843 0.06987-0.75114 0.10481-0.36101 0.03494-0.77443 0.03494zm-3.0162-3.1268v-5.025h1.5721v5.025zm-1.479-1.7119v-1.4499h5.7878v1.4499z" fill="" stroke-width="0" aria-label="Def4ult"></path>
</g>
</svg>